<?xml version="1.0" encoding="UTF-8" standalone="no"?>
<!-- Created with Inkscape (http://www.inkscape.org/) -->

<svg
   xmlns:dc="http://purl.org/dc/elements/1.1/"
   xmlns:cc="http://creativecommons.org/ns#"
   xmlns:rdf="http://www.w3.org/1999/02/22-rdf-syntax-ns#"
   xmlns:svg="http://www.w3.org/2000/svg"
   xmlns="http://www.w3.org/2000/svg"
   xmlns:xlink="http://www.w3.org/1999/xlink"
   xmlns:sodipodi="http://sodipodi.sourceforge.net/DTD/sodipodi-0.dtd"
   xmlns:inkscape="http://www.inkscape.org/namespaces/inkscape"
   width="1024"
   height="1024"
   id="svg2"
   version="1.1"
   inkscape:version="0.48.4 r9939"
   sodipodi:docname="Counter.svg"
   inkscape:export-filename="C:\Users\William\Documents\2013-2014\Plasmid\images\Counter.png"
   inkscape:export-xdpi="90"
   inkscape:export-ydpi="90">
  <defs
     id="defs4" />
  <sodipodi:namedview
     id="base"
     pagecolor="#000000"
     bordercolor="#666666"
     borderopacity="1.0"
     inkscape:pageopacity="1"
     inkscape:pageshadow="2"
     inkscape:zoom="0.70710678"
     inkscape:cx="705.18376"
     inkscape:cy="604.63248"
     inkscape:document-units="px"
     inkscape:current-layer="layer1"
     showgrid="true"
     inkscape:window-width="1600"
     inkscape:window-height="837"
     inkscape:window-x="-8"
     inkscape:window-y="-8"
     inkscape:window-maximized="1"
     inkscape:object-paths="true"
     inkscape:snap-intersection-paths="true"
     inkscape:snap-smooth-nodes="true"
     inkscape:object-nodes="true"
     inkscape:snap-midpoints="true"
     inkscape:snap-grids="true"
     inkscape:snap-page="true"
     showguides="true"
     inkscape:guide-bbox="true"
     inkscape:snap-bbox="true"
     inkscape:bbox-paths="false"
     inkscape:snap-bbox-edge-midpoints="false"
     inkscape:bbox-nodes="false"
     inkscape:snap-bbox-midpoints="true"
     inkscape:snap-nodes="false">
    <inkscape:grid
       type="xygrid"
       id="grid2985"
       empspacing="2"
       visible="true"
       enabled="false"
       snapvisiblegridlinesonly="true"
       spacingx="12.5px"
       spacingy="12.4px"
       originx="2px"
       originy="2px" />
    <inkscape:grid
       empspacing="2"
       visible="true"
       enabled="true"
       snapvisiblegridlinesonly="true"
       type="xygrid"
       id="grid4245"
       spacingx="102.4px"
       spacingy="170.6667px" />
  </sodipodi:namedview>
  <metadata
     id="metadata7">
    <rdf:RDF>
      <cc:Work
         rdf:about="">
        <dc:format>image/svg+xml</dc:format>
        <dc:type
           rdf:resource="http://purl.org/dc/dcmitype/StillImage" />
        <dc:title />
      </cc:Work>
    </rdf:RDF>
  </metadata>
  <g
     inkscape:label="Layer 1"
     inkscape:groupmode="layer"
     id="layer1"
     transform="translate(0,-28.36218)">
    <path
       style="fill:none;stroke:#ffffff;stroke-width:10;stroke-linecap:square;stroke-linejoin:miter;stroke-miterlimit:4;stroke-opacity:1;stroke-dasharray:none"
       d="m 282.2,99.02868 50,-50 0,300"
       id="path4066"
       inkscape:connector-curvature="0" />
    <path
       style="color:#000000;fill:none;stroke:#ffffff;stroke-width:10;stroke-linecap:square;stroke-linejoin:miter;stroke-miterlimit:4;stroke-opacity:1;stroke-dasharray:none;stroke-dashoffset:0;marker:none;visibility:visible;display:inline;overflow:visible;enable-background:accumulate"
       d="m 436.99999,124.62868 c 0,-74.4 75.00002,-74.4 75.00002,-74.4 0,0 75,0 75,74.4 0,74.4 -150.00001,223.2 -150.00001,223.2 l 150.00001,0"
       id="path4094"
       inkscape:connector-curvature="0" />
    <path
       style="color:#000000;fill:none;stroke:#ffffff;stroke-width:10;stroke-linecap:square;stroke-linejoin:miter;stroke-miterlimit:4;stroke-opacity:1;stroke-dasharray:none;stroke-dashoffset:0;marker:none;visibility:visible;display:inline;overflow:visible;enable-background:accumulate"
       d="m 641.8,124.62868 c 0,-74.4 75,-74.4 75,-74.4 0,0 75,0 75,74.4 0,74.4 -75,74.4 -75,74.4 0,0 75,0 75,74.4 0,74.4 -75,74.4 -75,74.4 0,0 -75,0 -75,-74.4"
       id="path4102"
       inkscape:connector-curvature="0" />
    <g
       id="g4239"
       transform="matrix(2,0,0,2,242.6,-165.69568)">
      <path
         transform="translate(0,28.36218)"
         inkscape:connector-curvature="0"
         id="path4134"
         d="m 364.5,79.6 0,148.8"
         style="color:#000000;fill:none;stroke:#ffffff;stroke-width:5;stroke-linecap:square;stroke-linejoin:miter;stroke-miterlimit:4;stroke-opacity:1;stroke-dasharray:none;stroke-dashoffset:0;marker:none;visibility:visible;display:inline;overflow:visible;enable-background:accumulate" />
      <path
         sodipodi:nodetypes="ccc"
         inkscape:connector-curvature="0"
         id="path4138"
         d="m 314.5,107.96218 c 0,74.4 -12.5,74.4 -12.5,74.4 l 75,0"
         style="color:#000000;fill:none;stroke:#ffffff;stroke-width:5;stroke-linecap:square;stroke-linejoin:miter;stroke-miterlimit:4;stroke-opacity:1;stroke-dasharray:none;stroke-dashoffset:0;marker:none;visibility:visible;display:inline;overflow:visible;enable-background:accumulate" />
    </g>
    <path
       style="color:#000000;fill:none;stroke:#ffffff;stroke-width:10;stroke-linecap:square;stroke-linejoin:miter;stroke-miterlimit:4;stroke-opacity:1;stroke-dasharray:none;stroke-dashoffset:0;marker:none;visibility:visible;display:inline;overflow:visible;enable-background:accumulate"
       d="m 177.4,391.56208 -125,0 -25,148.8 c 0,0 0,0 75,0 75,0 75,74.4 75,74.4 0,0 0,74.4 -75,74.4 -25,0 -75,0 -75,0"
       id="path4157"
       inkscape:connector-curvature="0"
       sodipodi:nodetypes="ccczcsc" />
    <path
       style="color:#000000;fill:none;stroke:#ffffff;stroke-width:10;stroke-linecap:square;stroke-linejoin:miter;stroke-miterlimit:4;stroke-opacity:1;stroke-dasharray:none;stroke-dashoffset:0;marker:none;visibility:visible;display:inline;overflow:visible;enable-background:accumulate"
       d="m 332.54348,391.56208 c -115.43283,65.35482 -100.00002,161.26854 -100.00002,223.2 0,74.4 75,74.4 75,74.4 0,0 75.00002,0 75.00002,-74.4 0,-74.4 -75.00002,-74.4 -75.00002,-74.4"
       id="path4165"
       inkscape:connector-curvature="0"
       sodipodi:nodetypes="cccsc" />
    <path
       style="color:#000000;fill:none;stroke:#ffffff;stroke-width:10;stroke-linecap:square;stroke-linejoin:miter;stroke-miterlimit:4;stroke-opacity:1;stroke-dasharray:none;stroke-dashoffset:0;marker:none;visibility:visible;display:inline;overflow:visible;enable-background:accumulate"
       d="m 487,689.16208 c 50,-248 100,-297.6 100,-297.6 l -150,0"
       id="path4184"
       inkscape:connector-curvature="0"
       sodipodi:nodetypes="ccc" />
    <path
       style="color:#000000;fill:none;stroke:#ffffff;stroke-width:10;stroke-linecap:square;stroke-linejoin:miter;stroke-miterlimit:4;stroke-opacity:1;stroke-dasharray:none;stroke-dashoffset:0;marker:none;visibility:visible;display:inline;overflow:visible;enable-background:accumulate"
       d="m 682.7999,557.16208 c 0,0 -41,8 -41,57.6 0,74.4 75.0002,74.4 75.0002,74.4 0,0 75,0 75,-74.4 0,-74.4 -75,-74.4 -75,-74.4 0,0 -75.0002,0 -75.0002,-74.4 0,-74.4 75.0002,-74.4 75.0002,-74.4 0,0 75,0 75,74.4 0,49.6 -41,57.6 -41,57.6"
       id="path4194"
       inkscape:connector-curvature="0"
       sodipodi:nodetypes="cscscscsc" />
    <path
       style="color:#000000;fill:none;stroke:#ffffff;stroke-width:10;stroke-linecap:square;stroke-linejoin:miter;stroke-miterlimit:4;stroke-opacity:1;stroke-dasharray:none;stroke-dashoffset:0;marker:none;visibility:visible;display:inline;overflow:visible;enable-background:accumulate"
       d="m 921.6,540.36208 c 0,0 -75,0 -75,-74.4 0,-74.4 75,-74.4 75,-74.4 0,0 75,0 75,74.4 0,74.4 -75,223.2 -75,223.2"
       id="path4202"
       inkscape:connector-curvature="0" />
    <path
       style="color:#000000;fill:none;stroke:#ffffff;stroke-width:10;stroke-linecap:square;stroke-linejoin:miter;stroke-miterlimit:4;stroke-opacity:1;stroke-dasharray:none;stroke-dashoffset:0;marker:none;visibility:visible;display:inline;overflow:visible;enable-background:accumulate"
       d="m 102.4,50.22868 c -75,0 -75,74.4 -75,74.4 l 0,148.8 c 0,0 0,74.4 75,74.4 75,0 75,-74.4 75,-74.4 l 0,-148.8 c 0,0 0,-74.4 -75,-74.4 z"
       id="path4210"
       inkscape:connector-curvature="0"
       sodipodi:nodetypes="sccsccs" />
    <g
       id="g4451"
       transform="translate(0,-7.46671)">
      <g
         transform="translate(10,0)"
         id="g4430">
        <path
           style="color:#000000;fill:none;stroke:#ffffff;stroke-width:5;stroke-linecap:square;stroke-linejoin:miter;stroke-miterlimit:4;stroke-opacity:1;stroke-dasharray:none;stroke-dashoffset:0;marker:none;visibility:visible;display:inline;overflow:visible;enable-background:accumulate"
           d="m 52,876.76218 0,-49.6 c 0,0 0,-49.6 50,-49.6 50,0 50,49.6 50,49.6 l 0,49.6"
           id="path4260"
           inkscape:connector-curvature="0" />
        <path
           style="color:#000000;fill:none;stroke:#ffffff;stroke-width:5;stroke-linecap:square;stroke-linejoin:miter;stroke-miterlimit:4;stroke-opacity:1;stroke-dasharray:none;stroke-dashoffset:0;marker:none;visibility:visible;display:inline;overflow:visible;enable-background:accumulate"
           d="m 102,827.16218 c 0,12.4 0,49.6 0,49.6"
           id="path4268"
           inkscape:connector-curvature="0" />
        <path
           style="color:#000000;fill:none;stroke:#ffffff;stroke-width:5;stroke-linecap:square;stroke-linejoin:miter;stroke-miterlimit:4;stroke-opacity:1;stroke-dasharray:none;stroke-dashoffset:0;marker:none;visibility:visible;display:inline;overflow:visible;enable-background:accumulate"
           d="m 177,777.56218 c 0,12.4 0,49.6 0,49.6 0,0 0,49.6 50,49.6 50,0 50,-49.6 50,-49.6 l 0,-49.6"
           id="path4276"
           inkscape:connector-curvature="0" />
        <g
           id="g4308">
          <path
             transform="translate(0,28.36218)"
             inkscape:connector-curvature="0"
             id="path4284"
             d="m 302,848.4 c 0,-37.2 0,-148.8 0,-148.8"
             style="color:#000000;fill:none;stroke:#ffffff;stroke-width:5;stroke-linecap:square;stroke-linejoin:miter;stroke-miterlimit:4;stroke-opacity:1;stroke-dasharray:none;stroke-dashoffset:0;marker:none;visibility:visible;display:inline;overflow:visible;enable-background:accumulate" />
          <path
             transform="translate(0,28.36218)"
             inkscape:connector-curvature="0"
             id="path4292"
             d="m 352,749.2 -50,0"
             style="color:#000000;fill:none;stroke:#ffffff;stroke-width:5;stroke-linecap:square;stroke-linejoin:miter;stroke-miterlimit:4;stroke-opacity:1;stroke-dasharray:none;stroke-dashoffset:0;marker:none;visibility:visible;display:inline;overflow:visible;enable-background:accumulate" />
        </g>
        <path
           style="color:#000000;fill:none;stroke:#ffffff;stroke-width:5;stroke-linecap:square;stroke-linejoin:miter;stroke-miterlimit:4;stroke-opacity:1;stroke-dasharray:none;stroke-dashoffset:0;marker:none;visibility:visible;display:inline;overflow:visible;enable-background:accumulate"
           d="m 427,876.76218 c 0,0 -50,0 -50,-49.6 0,-49.6 50,-49.6 50,-49.6 0,0 50,0 50,49.6 0,49.6 0,49.6 0,49.6"
           id="path4300"
           inkscape:connector-curvature="0" />
        <use
           x="0"
           y="0"
           xlink:href="#g4308"
           id="use4312"
           transform="translate(200,0)"
           width="1024"
           height="1024" />
        <path
           style="color:#000000;fill:none;stroke:#ffffff;stroke-width:5;stroke-linecap:square;stroke-linejoin:miter;stroke-miterlimit:4;stroke-opacity:1;stroke-dasharray:none;stroke-dashoffset:0;marker:none;visibility:visible;display:inline;overflow:visible;enable-background:accumulate"
           d="m 577,777.56218 c 0,12.4 0,99.2 0,99.2"
           id="path4314"
           inkscape:connector-curvature="0" />
        <path
           style="color:#000000;fill:none;stroke:#ffffff;stroke-width:5;stroke-linecap:square;stroke-linejoin:miter;stroke-miterlimit:4;stroke-opacity:1;stroke-dasharray:none;stroke-dashoffset:0;marker:none;visibility:visible;display:inline;overflow:visible;enable-background:accumulate"
           d="m 652,777.56218 c 0,0 -50,0 -50,49.6 0,49.6 50,49.6 50,49.6 0,0 50,0 50,-49.6 0,-49.6 -50,-49.6 -50,-49.6 z"
           id="path4322"
           inkscape:connector-curvature="0"
           sodipodi:nodetypes="cscsc" />
        <path
           style="color:#000000;fill:none;stroke:#ffffff;stroke-width:5;stroke-linecap:square;stroke-linejoin:miter;stroke-miterlimit:4;stroke-opacity:1;stroke-dasharray:none;stroke-dashoffset:0;marker:none;visibility:visible;display:inline;overflow:visible;enable-background:accumulate"
           d="m 727,876.76218 0,-49.6 c 0,0 0,-49.6 50,-49.6 50,0 50,49.6 50,49.6 l 0,49.6"
           id="path4330"
           inkscape:connector-curvature="0" />
        <path
           style="color:#000000;fill:none;stroke:#ffffff;stroke-width:5;stroke-linecap:square;stroke-linejoin:miter;stroke-miterlimit:4;stroke-opacity:1;stroke-dasharray:none;stroke-dashoffset:0;marker:none;visibility:visible;display:inline;overflow:visible;enable-background:accumulate"
           d="m 952,777.56218 -75,0 c 0,0 -25,0 -25,24.8 0,24.8 25,24.8 25,24.8 l 50,0 c 0,0 25,0 25,24.8 0,24.8 -25,24.8 -25,24.8 l -75,0"
           id="path4338"
           inkscape:connector-curvature="0" />
      </g>
      <g
         transform="translate(72.5,0)"
         id="g4444">
        <path
           style="color:#000000;fill:none;stroke:#ffffff;stroke-width:5;stroke-linecap:square;stroke-linejoin:miter;stroke-miterlimit:4;stroke-opacity:1;stroke-dasharray:none;stroke-dashoffset:0;marker:none;visibility:visible;display:inline;overflow:visible;enable-background:accumulate"
           d="m 302,901.56218 0,148.80002"
           id="path4346"
           inkscape:connector-curvature="0" />
        <path
           style="color:#000000;fill:none;stroke:#ffffff;stroke-width:5;stroke-linecap:square;stroke-linejoin:miter;stroke-miterlimit:4;stroke-opacity:1;stroke-dasharray:none;stroke-dashoffset:0;marker:none;visibility:visible;display:inline;overflow:visible;enable-background:accumulate"
           d="m 352,1000.7622 75,0 c 0,0 0,-49.60002 -50,-49.60002 -50,0 -50,49.60002 -50,49.60002 0,0 0,49.6 50,49.6 50,0 25,0 25,0"
           id="path4364"
           inkscape:connector-curvature="0"
           sodipodi:nodetypes="ccscsc" />
        <path
           style="color:#000000;fill:none;stroke:#ffffff;stroke-width:5;stroke-linecap:square;stroke-linejoin:miter;stroke-miterlimit:4;stroke-opacity:1;stroke-dasharray:none;stroke-dashoffset:0;marker:none;visibility:visible;display:inline;overflow:visible;enable-background:accumulate"
           d="m 452,1050.3622 0,-99.20002 c 0,0 0,-49.6 50,-49.6"
           id="path4372"
           inkscape:connector-curvature="0" />
        <path
           style="color:#000000;fill:none;stroke:#ffffff;stroke-width:5;stroke-linecap:square;stroke-linejoin:miter;stroke-miterlimit:4;stroke-opacity:1;stroke-dasharray:none;stroke-dashoffset:0;marker:none;visibility:visible;display:inline;overflow:visible;enable-background:accumulate"
           d="m 452,951.16218 50,0"
           id="path4380"
           inkscape:connector-curvature="0" />
        <use
           x="0"
           y="0"
           xlink:href="#use4312"
           id="use4390"
           transform="translate(25,173.6)"
           width="1024"
           height="1024" />
      </g>
    </g>
  </g>
</svg>
