<?xml version="1.0" encoding="UTF-8" standalone="no"?>
<!-- Created with Inkscape (http://www.inkscape.org/) -->

<svg
   xmlns:dc="http://purl.org/dc/elements/1.1/"
   xmlns:cc="http://creativecommons.org/ns#"
   xmlns:rdf="http://www.w3.org/1999/02/22-rdf-syntax-ns#"
   xmlns:svg="http://www.w3.org/2000/svg"
   xmlns="http://www.w3.org/2000/svg"
   xmlns:xlink="http://www.w3.org/1999/xlink"
   xmlns:sodipodi="http://sodipodi.sourceforge.net/DTD/sodipodi-0.dtd"
   xmlns:inkscape="http://www.inkscape.org/namespaces/inkscape"
   width="1024"
   height="1024"
   id="svg2"
   version="1.1"
   inkscape:version="0.48.4 r9939"
   sodipodi:docname="History.svg"
   inkscape:export-filename="C:\Users\William\Documents\2013-2014\Plasmid\images\History.png"
   inkscape:export-xdpi="90"
   inkscape:export-ydpi="90">
  <defs
     id="defs4" />
  <sodipodi:namedview
     id="base"
     pagecolor="#000000"
     bordercolor="#666666"
     borderopacity="1.0"
     inkscape:pageopacity="1"
     inkscape:pageshadow="2"
     inkscape:zoom="0.35355339"
     inkscape:cx="602.15215"
     inkscape:cy="470.5534"
     inkscape:document-units="px"
     inkscape:current-layer="g3964"
     showgrid="true"
     inkscape:window-width="1600"
     inkscape:window-height="837"
     inkscape:window-x="-8"
     inkscape:window-y="-8"
     inkscape:window-maximized="1"
     inkscape:object-paths="true"
     inkscape:snap-intersection-paths="true"
     inkscape:snap-smooth-nodes="true"
     inkscape:object-nodes="true"
     inkscape:snap-midpoints="true"
     inkscape:snap-grids="true"
     inkscape:snap-page="true"
     showguides="true"
     inkscape:guide-bbox="true"
     inkscape:snap-bbox="true"
     inkscape:bbox-paths="false"
     inkscape:snap-bbox-edge-midpoints="false"
     inkscape:bbox-nodes="false"
     inkscape:snap-bbox-midpoints="true"
     inkscape:snap-nodes="false">
    <inkscape:grid
       type="xygrid"
       id="grid2985"
       empspacing="2"
       visible="true"
       enabled="false"
       snapvisiblegridlinesonly="true"
       spacingx="12.5px"
       spacingy="12.4px"
       originx="2px"
       originy="2px" />
    <inkscape:grid
       empspacing="2"
       visible="true"
       enabled="true"
       snapvisiblegridlinesonly="true"
       type="xygrid"
       id="grid4245"
       spacingx="102.4px"
       spacingy="170.6667px" />
  </sodipodi:namedview>
  <metadata
     id="metadata7">
    <rdf:RDF>
      <cc:Work
         rdf:about="">
        <dc:format>image/svg+xml</dc:format>
        <dc:type
           rdf:resource="http://purl.org/dc/dcmitype/StillImage" />
        <dc:title></dc:title>
      </cc:Work>
    </rdf:RDF>
  </metadata>
  <g
     inkscape:label="Layer 1"
     inkscape:groupmode="layer"
     id="layer1"
     transform="translate(0,-28.36218)">
    <g
       id="g3887"
       transform="matrix(1.5,0,0,1.5,246.5,18.48541)">
      <path
         transform="translate(0,28.36218)"
         inkscape:connector-curvature="0"
         id="path3809"
         d="m 27,79.6 c 0,0 0,49.6 0,49.6 0,0 0,49.6 50,49.6 50,0 50,-49.6 50,-49.6 l 0,-49.6"
         style="color:#000000;fill:none;stroke:#ffffff;stroke-width:5;stroke-linecap:square;stroke-linejoin:miter;stroke-miterlimit:4;stroke-opacity:1;stroke-dasharray:none;stroke-dashoffset:0;marker:none;visibility:visible;display:inline;overflow:visible;enable-background:accumulate" />
      <use
         height="1024"
         width="1024"
         transform="matrix(-1,0,0,-1,279,315.12436)"
         id="use3817"
         xlink:href="#path3809"
         y="0"
         x="0" />
      <path
         transform="translate(0,28.36218)"
         inkscape:connector-curvature="0"
         id="path3830"
         d="m 377,-19.6 0,148.8 c 0,0 0,49.6 -50,49.6 -50,0 -50,-49.6 -50,-49.6 0,0 0,-49.6 50,-49.6"
         style="color:#000000;fill:none;stroke:#ffffff;stroke-width:5;stroke-linecap:square;stroke-linejoin:miter;stroke-miterlimit:4;stroke-opacity:1;stroke-dasharray:none;stroke-dashoffset:0;marker:none;visibility:visible;display:inline;overflow:visible;enable-background:accumulate" />
      <path
         transform="translate(0,28.36218)"
         inkscape:connector-curvature="0"
         id="path3838"
         d="m 452,79.6 c -50,0 -50,49.6 -50,49.6 0,0 0,49.6 50,49.6 50,0 50,-49.6 50,-49.6 0,0 0,-49.6 -50,-49.6 z"
         style="color:#000000;fill:none;stroke:#ffffff;stroke-width:5;stroke-linecap:square;stroke-linejoin:miter;stroke-miterlimit:4;stroke-opacity:1;stroke-dasharray:none;stroke-dashoffset:0;marker:none;visibility:visible;display:inline;overflow:visible;enable-background:accumulate" />
      <path
         inkscape:connector-curvature="0"
         id="path3846"
         d="m -73,231.96218 -75,-74.4 75,-74.4"
         style="color:#000000;fill:none;stroke:#ffffff;stroke-width:5;stroke-linecap:butt;stroke-linejoin:miter;stroke-miterlimit:4;stroke-opacity:1;stroke-dasharray:none;stroke-dashoffset:0;marker:none;visibility:visible;display:inline;overflow:visible;enable-background:accumulate" />
      <g
         id="g3964"
         transform="matrix(1.5,0,0,1.5,26.499997,-307.60339)">
        <path
           inkscape:connector-curvature="0"
           id="path3902"
           d="m -12.999996,638.31785 0,-33.06667 c 0,0 0,-33.06666 33.333333,-33.06666"
           style="color:#000000;fill:none;stroke:#ffffff;stroke-width:3.33333325;stroke-linecap:square;stroke-linejoin:miter;stroke-miterlimit:4;stroke-opacity:1;stroke-dasharray:none;stroke-dashoffset:0;marker:none;visibility:visible;display:inline;overflow:visible;enable-background:accumulate" />
        <path
           inkscape:connector-curvature="0"
           id="path3904"
           d="m 53.66667,605.25118 49.99999,0 c 0,0 0,-33.06666 -33.333323,-33.06666 -33.333333,0 -33.333333,33.06666 -33.333333,33.06666 0,0 0,33.06667 33.333333,33.06667 33.333323,0 16.666665,0 16.666665,0"
           style="color:#000000;fill:none;stroke:#ffffff;stroke-width:3.33333325;stroke-linecap:square;stroke-linejoin:miter;stroke-miterlimit:4;stroke-opacity:1;stroke-dasharray:none;stroke-dashoffset:0;marker:none;visibility:visible;display:inline;overflow:visible;enable-background:accumulate" />
        <path
           inkscape:connector-curvature="0"
           id="path3906"
           d="m 187,572.18452 -50,0 c 0,0 -16.66667,0 -16.66667,16.53333 0,16.53333 16.66667,16.53333 16.66667,16.53333 l 33.33333,0 c 0,0 16.66667,0 16.66667,16.53334 0,16.53333 -16.66667,16.53333 -16.66667,16.53333 l -50,0"
           style="color:#000000;fill:none;stroke:#ffffff;stroke-width:3.33333325;stroke-linecap:square;stroke-linejoin:miter;stroke-miterlimit:4;stroke-opacity:1;stroke-dasharray:none;stroke-dashoffset:0;marker:none;visibility:visible;display:inline;overflow:visible;enable-background:accumulate" />
        <path
           inkscape:connector-curvature="0"
           id="path3908"
           d="m 220.33333,605.25118 50,0 c 0,0 0,-33.06666 -33.33333,-33.06666 -33.33333,0 -33.33333,33.06666 -33.33333,33.06666 0,0 0,33.06667 33.33333,33.06667 33.33333,0 16.66667,0 16.66667,0"
           style="color:#000000;fill:none;stroke:#ffffff;stroke-width:3.33333325;stroke-linecap:square;stroke-linejoin:miter;stroke-miterlimit:4;stroke-opacity:1;stroke-dasharray:none;stroke-dashoffset:0;marker:none;visibility:visible;display:inline;overflow:visible;enable-background:accumulate" />
        <path
           inkscape:connector-curvature="0"
           id="path3916"
           d="m 287,638.31785 c 0,-8.26667 0,-99.2 0,-99.2"
           style="color:#000000;fill:none;stroke:#ffffff;stroke-width:3.33333325;stroke-linecap:square;stroke-linejoin:miter;stroke-miterlimit:4;stroke-opacity:1;stroke-dasharray:none;stroke-dashoffset:0;marker:none;visibility:visible;display:inline;overflow:visible;enable-background:accumulate" />
        <path
           inkscape:connector-curvature="0"
           id="path3918"
           d="m 320.33333,572.18452 c -8.33333,0 -33.33333,0 -33.33333,0"
           style="color:#000000;fill:none;stroke:#ffffff;stroke-width:3.33333325;stroke-linecap:square;stroke-linejoin:miter;stroke-miterlimit:4;stroke-opacity:1;stroke-dasharray:none;stroke-dashoffset:0;marker:none;visibility:visible;display:inline;overflow:visible;enable-background:accumulate" />
        <path
           sodipodi:nodetypes="cscsc"
           inkscape:connector-curvature="0"
           id="path3948"
           d="m -103,638.31785 c 0,0 -1.11111,0 32.222226,0 33.333333,0 33.333327,-33.06667 33.333327,-33.06667 0,0 6e-6,-33.06666 -33.333327,-33.06666 -33.333336,0 -48.888886,0 -48.888886,0"
           style="color:#000000;fill:none;stroke:#ffffff;stroke-width:3.33333325;stroke-linecap:square;stroke-linejoin:miter;stroke-miterlimit:4;stroke-opacity:1;stroke-dasharray:none;stroke-dashoffset:0;marker:none;visibility:visible;display:inline;overflow:visible;enable-background:accumulate" />
        <path
           inkscape:connector-curvature="0"
           id="path3956"
           d="m -86.333332,539.11785 -33.333328,33.06667 33.333328,33.06666"
           style="color:#000000;fill:none;stroke:#ffffff;stroke-width:3.33333325;stroke-linecap:square;stroke-linejoin:miter;stroke-miterlimit:4;stroke-opacity:1;stroke-dasharray:none;stroke-dashoffset:0;marker:none;visibility:visible;display:inline;overflow:visible;enable-background:accumulate" />
      </g>
    </g>
    <g
       id="g3880"
       transform="matrix(1.5,0,0,1.5,-53.5,-49.38119)">
      <path
         style="color:#000000;fill:none;stroke:#ffffff;stroke-width:5;stroke-linecap:square;stroke-linejoin:miter;stroke-miterlimit:4;stroke-opacity:1;stroke-dasharray:none;stroke-dashoffset:0;marker:none;visibility:visible;display:inline;overflow:visible;enable-background:accumulate"
         d="m 377,281.56218 0,148.8 c 0,0 0,49.6 -50,49.6 -50,0 -50,-49.6 -50,-49.6 0,0 0,-49.6 50,-49.6"
         id="path3858"
         inkscape:connector-curvature="0" />
      <path
         style="color:#000000;fill:none;stroke:#ffffff;stroke-width:5;stroke-linecap:square;stroke-linejoin:miter;stroke-miterlimit:4;stroke-opacity:1;stroke-dasharray:none;stroke-dashoffset:0;marker:none;visibility:visible;display:inline;overflow:visible;enable-background:accumulate"
         d="m 452,380.76218 c -50,0 -50,49.6 -50,49.6 0,0 0,49.6 50,49.6 50,0 50,-49.6 50,-49.6 0,0 0,-49.6 -50,-49.6 z"
         id="path3860"
         inkscape:connector-curvature="0" />
      <path
         style="color:#000000;fill:none;stroke:#ffffff;stroke-width:5;stroke-linecap:butt;stroke-linejoin:miter;stroke-miterlimit:4;stroke-opacity:1;stroke-dasharray:none;stroke-dashoffset:0;marker:none;visibility:visible;display:inline;overflow:visible;enable-background:accumulate"
         d="m 602,504.76218 75,-74.4 -75,-74.4"
         id="path3862"
         inkscape:connector-curvature="0" />
      <path
         transform="translate(0,28.36218)"
         inkscape:connector-curvature="0"
         id="path3864"
         d="M 77,451.6 77,402 c 0,0 0,-49.6 50,-49.6"
         style="color:#000000;fill:none;stroke:#ffffff;stroke-width:5;stroke-linecap:square;stroke-linejoin:miter;stroke-miterlimit:4;stroke-opacity:1;stroke-dasharray:none;stroke-dashoffset:0;marker:none;visibility:visible;display:inline;overflow:visible;enable-background:accumulate" />
      <path
         transform="translate(0,28.36218)"
         inkscape:connector-curvature="0"
         id="path3872"
         d="m 177,402 c 12.5,0 75,0 75,0 0,0 0,-49.6 -50,-49.6 -50,0 -50,49.6 -50,49.6 0,0 0,49.6 50,49.6 50,0 25,0 25,0"
         style="color:#000000;fill:none;stroke:#ffffff;stroke-width:5;stroke-linecap:square;stroke-linejoin:miter;stroke-miterlimit:4;stroke-opacity:1;stroke-dasharray:none;stroke-dashoffset:0;marker:none;visibility:visible;display:inline;overflow:visible;enable-background:accumulate" />
    </g>
  </g>
</svg>
