<?xml version="1.0" encoding="UTF-8" standalone="no"?>
<!-- Created with Inkscape (http://www.inkscape.org/) -->

<svg
   xmlns:dc="http://purl.org/dc/elements/1.1/"
   xmlns:cc="http://creativecommons.org/ns#"
   xmlns:rdf="http://www.w3.org/1999/02/22-rdf-syntax-ns#"
   xmlns:svg="http://www.w3.org/2000/svg"
   xmlns="http://www.w3.org/2000/svg"
   xmlns:xlink="http://www.w3.org/1999/xlink"
   xmlns:sodipodi="http://sodipodi.sourceforge.net/DTD/sodipodi-0.dtd"
   xmlns:inkscape="http://www.inkscape.org/namespaces/inkscape"
   width="1024"
   height="1024"
   id="svg2"
   version="1.1"
   inkscape:version="0.48.4 r9939"
   sodipodi:docname="MainMenu.svg"
   inkscape:export-filename="C:\Users\William\Documents\2013-2014\Plasmid\images\Logo.png"
   inkscape:export-xdpi="90"
   inkscape:export-ydpi="90">
  <defs
     id="defs4" />
  <sodipodi:namedview
     id="base"
     pagecolor="#000000"
     bordercolor="#666666"
     borderopacity="1.0"
     inkscape:pageopacity="1"
     inkscape:pageshadow="2"
     inkscape:zoom="1"
     inkscape:cx="547.17764"
     inkscape:cy="687.83237"
     inkscape:document-units="px"
     inkscape:current-layer="g3767"
     showgrid="true"
     inkscape:window-width="1600"
     inkscape:window-height="837"
     inkscape:window-x="-8"
     inkscape:window-y="-8"
     inkscape:window-maximized="1"
     inkscape:object-paths="true"
     inkscape:snap-intersection-paths="true"
     inkscape:snap-smooth-nodes="true"
     inkscape:object-nodes="true"
     inkscape:snap-midpoints="true">
    <inkscape:grid
       type="xygrid"
       id="grid2985"
       empspacing="5"
       visible="true"
       enabled="true"
       snapvisiblegridlinesonly="true"
       spacingx="5px"
       spacingy="5px"
       originx="2px"
       originy="2px" />
  </sodipodi:namedview>
  <metadata
     id="metadata7">
    <rdf:RDF>
      <cc:Work
         rdf:about="">
        <dc:format>image/svg+xml</dc:format>
        <dc:type
           rdf:resource="http://purl.org/dc/dcmitype/StillImage" />
        <dc:title />
      </cc:Work>
    </rdf:RDF>
  </metadata>
  <g
     inkscape:label="Layer 1"
     inkscape:groupmode="layer"
     id="layer1"
     transform="translate(0,-28.36218)">
    <g
       id="g3767"
       transform="matrix(0.99999,0,0,0.99999,12.50507,-283.49454)"
       style="stroke:#ffffff">
      <path
         style="fill:none;stroke:#ffffff;stroke-width:5;stroke-linecap:butt;stroke-linejoin:miter;stroke-opacity:1;stroke-miterlimit:4;stroke-dasharray:none"
         d="m 27,122 0,-50 c 0,0 0,-50 50,-50"
         id="path3816"
         inkscape:connector-curvature="0"
         transform="matrix(1.00001,0,0,1.00001,-12.505195,311.85984)" />
      <path
         style="color:#000000;fill:none;stroke:#ffffff;stroke-width:5;stroke-linecap:butt;stroke-linejoin:miter;stroke-miterlimit:4;stroke-opacity:1;stroke-dasharray:none;stroke-dashoffset:0;marker:none;visibility:visible;display:inline;overflow:visible;enable-background:accumulate"
         d="m 152,71.999999 50,0 c 0,0 0,-50 -50,-49.999999 -50,1e-6 -50,50 -50,50 0,0 0,50 50,50 16.66667,0 50,0 50,0"
         id="path3818"
         inkscape:connector-curvature="0"
         transform="matrix(1.00001,0,0,1.00001,-12.505195,311.85984)"
         sodipodi:nodetypes="ccscsc" />
      <path
         style="fill:none;stroke:#ffffff;stroke-width:5;stroke-linecap:butt;stroke-linejoin:miter;stroke-opacity:1;color:#000000;stroke-miterlimit:4;stroke-dasharray:none;stroke-dashoffset:0;marker:none;visibility:visible;display:inline;overflow:visible;enable-background:accumulate"
         d="m 327,22 -75,0 c 0,0 -25,0 -25,25 0,25 25,25 25,25 l 50,0 c 0,0 25,0 25,25 0,25 -25,25 -25,25 l -75,0"
         id="path3837"
         inkscape:connector-curvature="0"
         transform="matrix(1.00001,0,0,1.00001,-12.505195,311.85984)" />
      <path
         style="fill:none;stroke:#ffffff;stroke-width:5;stroke-linecap:butt;stroke-linejoin:miter;stroke-opacity:1;color:#000000;stroke-miterlimit:4;stroke-dasharray:none;stroke-dashoffset:0;marker:none;visibility:visible;display:inline;overflow:visible;enable-background:accumulate"
         d="m 352,22 0,50 c 0,0 0,50 50,50 50,0 50,-50 50,-50 l 0,-50"
         id="path3845"
         inkscape:connector-curvature="0"
         transform="matrix(1.00001,0,0,1.00001,-12.505195,311.85984)" />
      <g
         id="g3871">
        <path
           transform="matrix(1.00001,0,0,1.00001,-12.505195,311.85984)"
           inkscape:connector-curvature="0"
           id="path3853"
           d="m 477,122 0,-50 c 0,0 0,-50 50,-50 50,0 50,50 50,50 l 0,50"
           style="fill:none;stroke:#ffffff;stroke-width:5;stroke-linecap:butt;stroke-linejoin:miter;stroke-opacity:1;color:#000000;stroke-miterlimit:4;stroke-dasharray:none;stroke-dashoffset:0;marker:none;visibility:visible;display:inline;overflow:visible;enable-background:accumulate" />
        <path
           transform="matrix(1.00001,0,0,1.00001,-12.505195,311.85984)"
           inkscape:connector-curvature="0"
           id="path3861"
           d="m 527,72 0,50"
           style="fill:none;stroke:#ffffff;stroke-width:5;stroke-linecap:butt;stroke-linejoin:miter;stroke-opacity:1;color:#000000;stroke-miterlimit:4;stroke-dasharray:none;stroke-dashoffset:0;marker:none;visibility:visible;display:inline;overflow:visible;enable-background:accumulate" />
      </g>
      <use
         x="0"
         y="0"
         xlink:href="#path3818"
         id="use3869"
         transform="translate(500.005,-3.944042e-7)"
         width="1024"
         height="1024" />
      <path
         style="color:#000000;fill:none;stroke:#ffffff;stroke-width:5.00005007;stroke-linecap:butt;stroke-linejoin:miter;stroke-miterlimit:4;stroke-opacity:1;stroke-dasharray:none;stroke-dashoffset:0;marker:none;visibility:visible;display:inline;overflow:visible;enable-background:accumulate"
         d="m 114.49607,683.86356 0,-50.0005 c 0,0 0,-50.0005 -50.000495,-50.0005 -50.0005,0 -50.0005,50.0005 -50.0005,50.0005 0,0 0,50.0005 50.0005,50.0005"
         id="path3875"
         inkscape:connector-curvature="0" />
      <use
         x="0"
         y="0"
         xlink:href="#path3816"
         id="use3894"
         transform="translate(125.00125,250.0025)"
         width="1024"
         height="1024" />
      <use
         x="0"
         y="0"
         xlink:href="#path3845"
         id="use3896"
         transform="matrix(0,1,-1,0,648.35814,244.36423)"
         width="1024"
         height="1024" />
      <use
         x="0"
         y="0"
         xlink:href="#path3875"
         id="use3898"
         transform="translate(325.00325,1.3744138e-6)"
         width="1024"
         height="1024" />
      <use
         x="0"
         y="0"
         xlink:href="#use3869"
         id="use3900"
         transform="translate(0,250.0025)"
         width="1024"
         height="1024" />
      <path
         style="fill:none;stroke:#ffffff;stroke-width:5;stroke-linecap:butt;stroke-linejoin:miter;stroke-opacity:1;color:#000000;stroke-miterlimit:4;stroke-dasharray:none;stroke-dashoffset:0;marker:none;visibility:visible;display:inline;overflow:visible;enable-background:accumulate"
         d="m 527,272 c -50,0 -50,50 -50,50 0,0 0,50 50,50 50,0 50,-50 50,-50 l 0,-150"
         id="path3902"
         inkscape:connector-curvature="0"
         transform="matrix(1.00001,0,0,1.00001,-12.505195,311.85984)" />
    </g>
  </g>
</svg>
