<?xml version="1.0" encoding="UTF-8" standalone="no"?>
<!-- Created with Inkscape (http://www.inkscape.org/) -->

<svg
   xmlns:dc="http://purl.org/dc/elements/1.1/"
   xmlns:cc="http://creativecommons.org/ns#"
   xmlns:rdf="http://www.w3.org/1999/02/22-rdf-syntax-ns#"
   xmlns:svg="http://www.w3.org/2000/svg"
   xmlns="http://www.w3.org/2000/svg"
   xmlns:xlink="http://www.w3.org/1999/xlink"
   xmlns:sodipodi="http://sodipodi.sourceforge.net/DTD/sodipodi-0.dtd"
   xmlns:inkscape="http://www.inkscape.org/namespaces/inkscape"
   width="1024"
   height="1024"
   id="svg2"
   version="1.1"
   inkscape:version="0.48.4 r9939"
   sodipodi:docname="MenuControls.svg"
   inkscape:export-filename="C:\Users\William\Documents\2013-2014\Plasmid\images\MenuControls.png"
   inkscape:export-xdpi="90"
   inkscape:export-ydpi="90">
  <defs
     id="defs4" />
  <sodipodi:namedview
     id="base"
     pagecolor="#000000"
     bordercolor="#666666"
     borderopacity="1.0"
     inkscape:pageopacity="1"
     inkscape:pageshadow="2"
     inkscape:zoom="0.4281044"
     inkscape:cx="344.80871"
     inkscape:cy="461.40463"
     inkscape:document-units="px"
     inkscape:current-layer="layer1"
     showgrid="true"
     inkscape:window-width="1600"
     inkscape:window-height="837"
     inkscape:window-x="-8"
     inkscape:window-y="-8"
     inkscape:window-maximized="1"
     inkscape:object-paths="true"
     inkscape:snap-intersection-paths="true"
     inkscape:snap-smooth-nodes="true"
     inkscape:object-nodes="true"
     inkscape:snap-midpoints="true"
     showguides="true"
     inkscape:guide-bbox="true">
    <inkscape:grid
       type="xygrid"
       id="grid2985"
       empspacing="5"
       visible="true"
       enabled="true"
       snapvisiblegridlinesonly="true"
       spacingx="5px"
       spacingy="5px"
       originx="2px"
       originy="2px" />
    <sodipodi:guide
       orientation="0,1"
       position="0,256"
       id="guide3885" />
    <sodipodi:guide
       orientation="0,1"
       position="0,512"
       id="guide3887" />
    <sodipodi:guide
       orientation="0,1"
       position="0,768"
       id="guide3889" />
  </sodipodi:namedview>
  <metadata
     id="metadata7">
    <rdf:RDF>
      <cc:Work
         rdf:about="">
        <dc:format>image/svg+xml</dc:format>
        <dc:type
           rdf:resource="http://purl.org/dc/dcmitype/StillImage" />
        <dc:title></dc:title>
      </cc:Work>
    </rdf:RDF>
  </metadata>
  <g
     inkscape:label="Layer 1"
     inkscape:groupmode="layer"
     id="layer1"
     transform="translate(0,-28.36218)">
    <path
       inkscape:connector-curvature="0"
       id="path3816"
       d="m 237,425.36218 0,-50 c 0,0 0,-50 50,-50"
       style="fill:none;stroke:#ffffff;stroke-width:5;stroke-linecap:butt;stroke-linejoin:miter;stroke-miterlimit:4;stroke-opacity:1;stroke-dasharray:none" />
    <path
       sodipodi:nodetypes="ccscsc"
       inkscape:connector-curvature="0"
       id="path3818"
       d="m 252,150.36218 50,0 c 0,0 0,-50 -50,-50 -50,0 -50,50 -50,50 0,0 0,50 50,50 16.66667,0 50,0 50,0"
       style="color:#000000;fill:none;stroke:#ffffff;stroke-width:5;stroke-linecap:butt;stroke-linejoin:miter;stroke-miterlimit:4;stroke-opacity:1;stroke-dasharray:none;stroke-dashoffset:0;marker:none;visibility:visible;display:inline;overflow:visible;enable-background:accumulate" />
    <path
       inkscape:connector-curvature="0"
       id="path2998"
       d="m 177,200.36218 0,-50 c 0,0 0,-50 -50,-50 -50,0 -50,50 -50,50 l 0,50"
       style="color:#000000;fill:none;stroke:#ffffff;stroke-width:5;stroke-linecap:square;stroke-linejoin:miter;stroke-miterlimit:4;stroke-opacity:1;stroke-dasharray:none;stroke-dashoffset:0;marker:none;visibility:visible;display:inline;overflow:visible;enable-background:accumulate" />
    <path
       sodipodi:nodetypes="ccscc"
       inkscape:connector-curvature="0"
       id="path3019"
       d="m 112,525.36218 0,-150 c 0,0 0,-50 50,-50 50,0 50,50 50,50 0,0 0,50 -50,50"
       style="color:#000000;fill:none;stroke:#ffffff;stroke-width:5;stroke-linecap:square;stroke-linejoin:miter;stroke-miterlimit:4;stroke-opacity:1;stroke-dasharray:none;stroke-dashoffset:0;marker:none;visibility:visible;display:inline;overflow:visible;enable-background:accumulate" />
    <g
       style="stroke:#ffffff"
       transform="matrix(0.99999,0,0,0.99999,187.50507,-508.49454)"
       id="g3843">
      <path
         style="color:#000000;fill:none;stroke:#ffffff;stroke-width:5;stroke-linecap:butt;stroke-linejoin:miter;stroke-miterlimit:4;stroke-opacity:1;stroke-dasharray:none;stroke-dashoffset:0;marker:none;visibility:visible;display:inline;overflow:visible;enable-background:accumulate"
         d="m 276.99999,247.00003 c 0,0 10e-6,83.3333 10e-6,149.99997"
         id="path3815"
         inkscape:connector-curvature="0"
         transform="matrix(1.00001,0,0,1.00001,-12.505195,311.85984)"
         sodipodi:nodetypes="cc" />
      <path
         style="color:#000000;fill:none;stroke:#ffffff;stroke-width:5;stroke-linecap:butt;stroke-linejoin:miter;stroke-miterlimit:4;stroke-opacity:1;stroke-dasharray:none;stroke-dashoffset:0;marker:none;visibility:visible;display:inline;overflow:visible;enable-background:accumulate"
         d="m 277,297 50,0"
         id="path3817"
         inkscape:connector-curvature="0"
         transform="matrix(1.00001,0,0,1.00001,-12.505195,311.85984)" />
    </g>
    <path
       inkscape:connector-curvature="0"
       id="path3825"
       d="m 562,375.36218 c 0,0 0,-50 50,-50 50,0 50,50 50,50 0,0 0,50 -50,50 -50,0 -50,-50 -50,-50"
       style="color:#000000;fill:none;stroke:#ffffff;stroke-width:5;stroke-linecap:butt;stroke-linejoin:miter;stroke-miterlimit:4;stroke-opacity:1;stroke-dasharray:none;stroke-dashoffset:0;marker:none;visibility:visible;display:inline;overflow:visible;enable-background:accumulate" />
    <use
       style="stroke:#ffffff"
       height="1024"
       width="1024"
       transform="translate(85,225)"
       id="use3857"
       xlink:href="#path3818"
       y="0"
       x="0" />
    <path
       style="color:#000000;fill:none;stroke:#ffffff;stroke-width:5;stroke-linecap:square;stroke-linejoin:miter;stroke-miterlimit:4;stroke-opacity:1;stroke-dasharray:none;stroke-dashoffset:0;marker:none;visibility:visible;display:inline;overflow:visible;enable-background:accumulate"
       d="m 387,675.36218 c -50,0 -50,-50 -50,-50 0,0 0,-49.99999 50,-49.99999 50,0 50,49.99999 50,49.99999 l 0,50"
       id="use3873"
       inkscape:connector-curvature="0" />
    <path
       style="color:#000000;fill:none;stroke:#ffffff;stroke-width:5;stroke-linecap:butt;stroke-linejoin:miter;stroke-miterlimit:4;stroke-opacity:1;stroke-dasharray:none;stroke-dashoffset:0;marker:none;visibility:visible;display:inline;overflow:visible;enable-background:accumulate"
       d="m 327,200.36218 100,-100"
       id="path3022"
       inkscape:connector-curvature="0" />
    <path
       style="color:#000000;fill:none;stroke:#ffffff;stroke-width:5;stroke-linecap:butt;stroke-linejoin:miter;stroke-miterlimit:4;stroke-opacity:1;stroke-dasharray:none;stroke-dashoffset:0;marker:none;visibility:visible;display:inline;overflow:visible;enable-background:accumulate"
       d="m 327,100.36218 100,100"
       id="path3024"
       inkscape:connector-curvature="0" />
    <path
       style="color:#000000;fill:none;stroke:#ffffff;stroke-width:5;stroke-linecap:butt;stroke-linejoin:miter;stroke-miterlimit:4;stroke-opacity:1;stroke-dasharray:none;stroke-dashoffset:0;marker:none;visibility:visible;display:inline;overflow:visible;enable-background:accumulate"
       d="m 552,50.362179 0,150.000001"
       id="path3043"
       inkscape:connector-curvature="0" />
    <use
       x="0"
       y="0"
       xlink:href="#path3818"
       id="use3051"
       transform="translate(375,3.719e-7)"
       width="1024"
       height="1024" />
    <path
       style="color:#000000;fill:none;stroke:#ffffff;stroke-width:5;stroke-linecap:butt;stroke-linejoin:miter;stroke-miterlimit:4;stroke-opacity:1;stroke-dasharray:none;stroke-dashoffset:0;marker:none;visibility:visible;display:inline;overflow:visible;enable-background:accumulate"
       d="m 702,100.36218 50,100 50,-100"
       id="path3053"
       inkscape:connector-curvature="0" />
    <use
       x="0"
       y="0"
       xlink:href="#use3051"
       id="use3061"
       transform="translate(250,3.719e-7)"
       width="1024"
       height="1024" />
    <use
       x="0"
       y="0"
       xlink:href="#path3043"
       id="use3063"
       transform="translate(400,3.719e-7)"
       width="1024"
       height="1024" />
    <use
       x="0"
       y="0"
       xlink:href="#path3053"
       id="use3065"
       transform="translate(-290,225)"
       width="1024"
       height="1024" />
    <path
       style="color:#000000;fill:none;stroke:#ffffff;stroke-width:5;stroke-linecap:square;stroke-linejoin:miter;stroke-miterlimit:4;stroke-opacity:1;stroke-dasharray:none;stroke-dashoffset:0;marker:none;visibility:visible;display:inline;overflow:visible;enable-background:accumulate"
       d="m 537,325.36218 0,100"
       id="use3067"
       inkscape:connector-curvature="0" />
    <use
       x="0"
       y="0"
       xlink:href="#path2998"
       id="use3069"
       transform="matrix(-1,0,0,-1,864,525.72436)"
       width="1024"
       height="1024" />
    <path
       style="color:#000000;fill:none;stroke:#ffffff;stroke-width:5;stroke-linecap:butt;stroke-linejoin:miter;stroke-miterlimit:4;stroke-opacity:1;stroke-dasharray:none;stroke-dashoffset:0;marker:none;visibility:visible;display:inline;overflow:visible;enable-background:accumulate"
       d="m 912,325.36218 -75,0 c 0,0 -25,0 -25,25 0,25 25,25 25,25 l 50,0 c 0,0 25,0 25,25 0,25 -25,25 -25,25 l -75,0"
       id="path3148"
       inkscape:connector-curvature="0" />
    <use
       x="0"
       y="0"
       xlink:href="#path3019"
       id="use3198"
       transform="translate(100,250)"
       width="1024"
       height="1024" />
    <use
       x="0"
       y="0"
       xlink:href="#use3069"
       id="use3200"
       transform="translate(-225,250)"
       width="1024"
       height="1024" />
    <use
       x="0"
       y="0"
       xlink:href="#path3148"
       id="use3202"
       transform="translate(-225,250)"
       width="1024"
       height="1024" />
    <use
       x="0"
       y="0"
       xlink:href="#path3818"
       id="use3204"
       transform="translate(510,475)"
       width="1024"
       height="1024" />
    <path
       style="color:#000000;fill:none;stroke:#ffffff;stroke-width:5;stroke-linecap:butt;stroke-linejoin:miter;stroke-miterlimit:4;stroke-opacity:1;stroke-dasharray:none;stroke-dashoffset:0;marker:none;visibility:visible;display:inline;overflow:visible;enable-background:accumulate"
       d="m 324.5,800.36218 0,150 0,-50 c 0,0 0,-50 50,-50 50,0 50,50 50,50 l 0,50"
       id="path3206"
       inkscape:connector-curvature="0"
       sodipodi:nodetypes="cccscc" />
    <path
       style="color:#000000;fill:none;stroke:#ffffff;stroke-width:5;stroke-linecap:butt;stroke-linejoin:miter;stroke-miterlimit:4;stroke-opacity:1;stroke-dasharray:none;stroke-dashoffset:0;marker:none;visibility:visible;display:inline;overflow:visible;enable-background:accumulate"
       d="m 574.5,950.3622 0,-150.00002"
       id="path3208"
       inkscape:connector-curvature="0" />
    <use
       x="0"
       y="0"
       xlink:href="#use3204"
       id="use3216"
       transform="translate(-262.5,275)"
       width="1024"
       height="1024" />
    <use
       height="1024"
       width="1024"
       transform="translate(487.5,525)"
       id="use3218"
       xlink:href="#path3019"
       y="0"
       x="0" />
  </g>
</svg>
