<?xml version="1.0" encoding="UTF-8" standalone="no"?>
<!-- Created with Inkscape (http://www.inkscape.org/) -->

<svg
   xmlns:dc="http://purl.org/dc/elements/1.1/"
   xmlns:cc="http://creativecommons.org/ns#"
   xmlns:rdf="http://www.w3.org/1999/02/22-rdf-syntax-ns#"
   xmlns:svg="http://www.w3.org/2000/svg"
   xmlns="http://www.w3.org/2000/svg"
   xmlns:sodipodi="http://sodipodi.sourceforge.net/DTD/sodipodi-0.dtd"
   xmlns:inkscape="http://www.inkscape.org/namespaces/inkscape"
   width="1024"
   height="1024"
   id="svg2"
   version="1.1"
   inkscape:version="0.48.4 r9939"
   sodipodi:docname="Counter.svg"
   inkscape:export-filename="C:\Users\William\Documents\2013-2014\Plasmid\images\Complete.png"
   inkscape:export-xdpi="90"
   inkscape:export-ydpi="90">
  <defs
     id="defs4" />
  <sodipodi:namedview
     id="base"
     pagecolor="#000000"
     bordercolor="#666666"
     borderopacity="1.0"
     inkscape:pageopacity="1"
     inkscape:pageshadow="2"
     inkscape:zoom="1"
     inkscape:cx="570.88604"
     inkscape:cy="853.80216"
     inkscape:document-units="px"
     inkscape:current-layer="layer1"
     showgrid="true"
     inkscape:window-width="1600"
     inkscape:window-height="837"
     inkscape:window-x="-8"
     inkscape:window-y="-8"
     inkscape:window-maximized="1"
     inkscape:object-paths="true"
     inkscape:snap-intersection-paths="true"
     inkscape:snap-smooth-nodes="true"
     inkscape:object-nodes="true"
     inkscape:snap-midpoints="true"
     inkscape:snap-grids="true"
     inkscape:snap-page="true"
     showguides="true"
     inkscape:guide-bbox="true"
     inkscape:snap-bbox="true"
     inkscape:bbox-paths="true"
     inkscape:snap-bbox-edge-midpoints="true"
     inkscape:bbox-nodes="true">
    <inkscape:grid
       type="xygrid"
       id="grid2985"
       empspacing="2"
       visible="true"
       enabled="true"
       snapvisiblegridlinesonly="true"
       spacingx="12.5px"
       spacingy="12.4px"
       originx="2px"
       originy="2px" />
    <sodipodi:guide
       orientation="0,1"
       position="0,341.333"
       id="guide3920" />
    <sodipodi:guide
       orientation="0,1"
       position="0,682.666"
       id="guide3922" />
  </sodipodi:namedview>
  <metadata
     id="metadata7">
    <rdf:RDF>
      <cc:Work
         rdf:about="">
        <dc:format>image/svg+xml</dc:format>
        <dc:type
           rdf:resource="http://purl.org/dc/dcmitype/StillImage" />
        <dc:title></dc:title>
      </cc:Work>
    </rdf:RDF>
  </metadata>
  <g
     inkscape:label="Layer 1"
     inkscape:groupmode="layer"
     id="layer1"
     transform="translate(0,-28.36218)">
    <path
       style="fill:none;stroke:#ffffff;stroke-width:5;stroke-linecap:butt;stroke-linejoin:miter;stroke-miterlimit:4;stroke-opacity:1;stroke-dasharray:none"
       d="m 52,131.76218 25,-25 0,150"
       id="path4066"
       inkscape:connector-curvature="0" />
    <path
       style="fill:none;stroke:#ffffff;stroke-width:5;stroke-linecap:butt;stroke-linejoin:miter;stroke-opacity:1;color:#000000;stroke-miterlimit:4;stroke-dasharray:none;stroke-dashoffset:0;marker:none;visibility:visible;display:inline;overflow:visible;enable-background:accumulate"
       d="m 102,116.8 c 0,-37.2 37.5,-37.2 37.5,-37.2 0,0 37.5,0 37.5,37.2 0,37.2 -75,111.6 -75,111.6 l 75,0"
       id="path4094"
       inkscape:connector-curvature="0"
       transform="translate(0,28.36218)" />
    <path
       style="fill:none;stroke:#ffffff;stroke-width:5;stroke-linecap:butt;stroke-linejoin:miter;stroke-opacity:1;color:#000000;stroke-miterlimit:4;stroke-dasharray:none;stroke-dashoffset:0;marker:none;visibility:visible;display:inline;overflow:visible;enable-background:accumulate"
       d="m 202,116.8 c 0,-37.2 37.5,-37.2 37.5,-37.2 0,0 37.5,0 37.5,37.2 0,37.2 -37.5,37.2 -37.5,37.2 0,0 37.5,0 37.5,37.2 0,37.2 -37.5,37.2 -37.5,37.2 0,0 -37.5,0 -37.5,-37.2"
       id="path4102"
       inkscape:connector-curvature="0"
       transform="translate(0,28.36218)" />
    <path
       style="fill:none;stroke:#ffffff;stroke-width:5;stroke-linecap:butt;stroke-linejoin:miter;stroke-opacity:1;color:#000000;stroke-miterlimit:4;stroke-dasharray:none;stroke-dashoffset:0;marker:none;visibility:visible;display:inline;overflow:visible;enable-background:accumulate"
       d="m 364.5,79.6 0,148.8"
       id="path4134"
       inkscape:connector-curvature="0"
       transform="translate(0,28.36218)" />
    <path
       style="color:#000000;fill:none;stroke:#ffffff;stroke-width:5;stroke-linecap:butt;stroke-linejoin:miter;stroke-miterlimit:4;stroke-opacity:1;stroke-dasharray:none;stroke-dashoffset:0;marker:none;visibility:visible;display:inline;overflow:visible;enable-background:accumulate"
       d="m 314.5,107.96218 c 0,74.4 -12.5,74.4 -12.5,74.4 l 75,0"
       id="path4138"
       inkscape:connector-curvature="0"
       sodipodi:nodetypes="ccc" />
    <path
       style="color:#000000;fill:none;stroke:#ffffff;stroke-width:5;stroke-linecap:butt;stroke-linejoin:miter;stroke-miterlimit:4;stroke-opacity:1;stroke-dasharray:none;stroke-dashoffset:0;marker:none;visibility:visible;display:inline;overflow:visible;enable-background:accumulate"
       d="m 477,79.6 -62.5,0 L 402,154 c 0,0 0,0 37.5,0 37.5,0 37.5,37.2 37.5,37.2 0,0 0,37.2 -37.5,37.2 -12.5,0 -37.5,0 -37.5,0"
       id="path4157"
       inkscape:connector-curvature="0"
       transform="translate(0,28.36218)"
       sodipodi:nodetypes="ccczcsc" />
    <path
       style="color:#000000;fill:none;stroke:#ffffff;stroke-width:5;stroke-linecap:butt;stroke-linejoin:miter;stroke-miterlimit:4;stroke-opacity:1;stroke-dasharray:none;stroke-dashoffset:0;marker:none;visibility:visible;display:inline;overflow:visible;enable-background:accumulate"
       d="m 552,79.6 c -57.71636,32.67741 -50,80.63427 -50,111.6 0,37.2 37.5,37.2 37.5,37.2 0,0 37.5,0 37.5,-37.2 C 577,154 539.5,154 539.5,154"
       id="path4165"
       inkscape:connector-curvature="0"
       transform="translate(0,28.36218)"
       sodipodi:nodetypes="cccsc" />
    <path
       style="color:#000000;fill:none;stroke:#ffffff;stroke-width:5;stroke-linecap:butt;stroke-linejoin:miter;stroke-miterlimit:4;stroke-opacity:1;stroke-dasharray:none;stroke-dashoffset:0;marker:none;visibility:visible;display:inline;overflow:visible;enable-background:accumulate"
       d="m 627,228.4 c 25,-124 50,-148.8 50,-148.8 l -75,0"
       id="path4184"
       inkscape:connector-curvature="0"
       transform="translate(0,28.36218)"
       sodipodi:nodetypes="ccc" />
    <path
       style="color:#000000;fill:none;stroke:#ffffff;stroke-width:5;stroke-linecap:butt;stroke-linejoin:miter;stroke-miterlimit:4;stroke-opacity:1;stroke-dasharray:none;stroke-dashoffset:0;marker:none;visibility:visible;display:inline;overflow:visible;enable-background:accumulate"
       d="m 722.5,162.4 c 0,0 -20.5,4 -20.5,28.8 0,37.2 37.5,37.2 37.5,37.2 0,0 37.5,0 37.5,-37.2 0,-37.2 -37.5,-37.2 -37.5,-37.2 0,0 -37.5,0 -37.5,-37.2 0,-37.2 37.5,-37.2 37.5,-37.2 0,0 37.5,0 37.5,37.2 0,24.8 -20.5,28.8 -20.5,28.8"
       id="path4194"
       inkscape:connector-curvature="0"
       transform="translate(0,28.36218)"
       sodipodi:nodetypes="cscscscsc" />
    <path
       style="fill:none;stroke:#ffffff;stroke-width:5;stroke-linecap:butt;stroke-linejoin:miter;stroke-opacity:1;color:#000000;stroke-miterlimit:4;stroke-dasharray:none;stroke-dashoffset:0;marker:none;visibility:visible;display:inline;overflow:visible;enable-background:accumulate"
       d="m 839.5,154 c 0,0 -37.5,0 -37.5,-37.2 0,-37.2 37.5,-37.2 37.5,-37.2 0,0 37.5,0 37.5,37.2 0,37.2 -37.5,111.6 -37.5,111.6"
       id="path4202"
       inkscape:connector-curvature="0"
       transform="translate(0,28.36218)" />
    <path
       style="color:#000000;fill:none;stroke:#ffffff;stroke-width:5;stroke-linecap:butt;stroke-linejoin:miter;stroke-miterlimit:4;stroke-opacity:1;stroke-dasharray:none;stroke-dashoffset:0;marker:none;visibility:visible;display:inline;overflow:visible;enable-background:accumulate"
       d="M 939.5,79.6 C 902,79.6 902,116.8 902,116.8 l 0,74.4 c 0,0 0,37.2 37.5,37.2 37.5,0 37.5,-37.2 37.5,-37.2 l 0,-74.4 c 0,0 0,-37.2 -37.5,-37.2 z"
       id="path4210"
       inkscape:connector-curvature="0"
       transform="translate(0,28.36218)"
       sodipodi:nodetypes="sccsccs" />
  </g>
</svg>
